<svg width="52" height="52" viewBox="0 0 52 52" fill="none" xmlns="http://www.w3.org/2000/svg">
<path fill-rule="evenodd" clip-rule="evenodd" d="M43.4044 16.8233C47.2925 19.8534 49.2083 24.0438 49.2782 28.8694C49.3244 32.0642 48.7605 35.2044 47.3133 37.9635C46.5857 39.2025 45.6672 40.3565 44.532 41.3927C40.8665 44.7386 35.9478 45.9247 30.9245 45.9966C25.9013 46.0684 20.9503 45.0233 17.1894 41.7837C15.5286 40.3531 14.302 38.6717 13.4357 36.8332C11.5802 36.9439 9.67833 36.4069 8.10056 35.1784L8.09841 35.1767C4.21032 32.1466 2.29446 27.9562 2.2246 23.1307C2.17835 19.9358 2.7426 16.795 4.18987 14.0359C4.91744 12.7969 5.83563 11.6435 6.97083 10.6073C10.6363 7.26145 15.555 6.07526 20.5783 6.00343C25.6015 5.9316 30.5525 6.97666 34.3134 10.2163C35.9741 11.6469 37.2008 13.3283 38.0671 15.1669C39.9226 15.0561 41.8245 15.5931 43.4022 16.8216L43.4044 16.8233ZM10.6611 22.8958C10.6611 25.1315 11.3636 26.6969 12.9402 27.9727C13.6477 28.5453 13.7598 29.5894 13.1876 30.301C12.6153 31.0125 11.578 31.1234 10.8688 30.5492C8.51054 28.6379 7.36272 26.1359 7.36272 22.8958C7.36272 15.0406 11.8089 11.0575 20.5841 11.0575C29.3593 11.0575 33.8071 15.0406 33.8071 22.8958C33.8071 26.1458 32.6593 28.6495 30.2977 30.5509C29.9942 30.7958 29.6298 30.9149 29.2669 30.9149C28.7854 30.9149 28.3055 30.7031 27.9806 30.296C27.41 29.5828 27.5238 28.5403 28.2346 27.9694C29.8079 26.7018 30.5104 25.1364 30.5104 22.8958C30.5104 18.6778 29.3313 14.3671 20.5857 14.3671C11.8402 14.3671 10.6611 18.6795 10.6611 22.8958ZM37.8195 21.6018C38.3918 20.8919 39.4291 20.7777 40.1382 21.3536V21.3519C42.4966 23.2632 43.6444 25.7652 43.6444 29.0053C43.6444 36.8605 39.1966 40.8436 30.4214 40.8436C21.6461 40.8436 17.1983 36.8605 17.1983 29.0053C17.1983 25.7553 18.3462 23.2516 20.7078 21.3503C21.4169 20.7777 22.4559 20.8902 23.0265 21.6051C23.5971 22.3183 23.4833 23.3608 22.7725 23.9317C21.1992 25.1993 20.4967 26.7647 20.4967 29.0053C20.4967 33.2233 21.6758 37.534 30.4214 37.534C39.1669 37.534 40.346 33.2217 40.346 29.0053C40.346 26.7697 39.6435 25.2043 38.0669 23.9284C37.3594 23.3559 37.2473 22.3134 37.8195 21.6018Z" fill="#2C46B1"/>
</svg>
