<svg width="162" height="44" viewBox="0 0 162 44" fill="none" xmlns="http://www.w3.org/2000/svg">
<path fill-rule="evenodd" clip-rule="evenodd" d="M40.8948 13.4439C44.5669 16.3057 46.3763 20.2634 46.4423 24.8208C46.486 27.8382 45.9534 30.8039 44.5865 33.4098C43.8994 34.58 43.0319 35.6699 41.9597 36.6485C38.4979 39.8085 33.8524 40.9288 29.1082 40.9966C24.364 41.0644 19.6881 40.0774 16.1362 37.0178C14.5676 35.6666 13.4091 34.0786 12.5909 32.3422C10.8385 32.4468 9.04232 31.9397 7.55219 30.7794L7.55016 30.7778C3.87806 27.916 2.06863 23.9584 2.00265 19.4009C1.95897 16.3836 2.49188 13.4173 3.85875 10.8114C4.5459 9.6412 5.41308 8.55188 6.48522 7.57324C9.94708 4.41329 14.5925 3.293 19.3367 3.22516C24.0809 3.15733 28.7569 4.14433 32.3088 7.20399C33.8773 8.55514 35.0358 10.1431 35.854 11.8795C37.6064 11.7749 39.4026 12.2821 40.8928 13.4423L40.8948 13.4439ZM9.97049 19.1791C9.97049 21.2905 10.634 22.769 12.123 23.9739C12.7912 24.5147 12.8971 25.5008 12.3567 26.1729C11.8162 26.8449 10.8365 26.9496 10.1667 26.4073C7.93945 24.6022 6.85539 22.2392 6.85539 19.1791C6.85539 11.7602 11.0545 7.99843 19.3423 7.99843C27.63 7.99843 31.8307 11.7602 31.8307 19.1791C31.8307 22.2485 30.7467 24.6131 28.5162 26.4089C28.2297 26.6402 27.8854 26.7527 27.5428 26.7527C27.088 26.7527 26.6347 26.5526 26.3279 26.1682C25.789 25.4946 25.8965 24.51 26.5678 23.9708C28.0537 22.7737 28.7172 21.2952 28.7172 19.1791C28.7172 15.1954 27.6035 11.1241 19.3438 11.1241C11.0841 11.1241 9.97049 15.1969 9.97049 19.1791ZM35.6202 17.9569C36.1607 17.2865 37.1404 17.1786 37.8102 17.7225V17.721C40.0375 19.526 41.1215 21.8891 41.1215 24.9492C41.1215 32.368 36.9208 36.1298 28.6331 36.1298C20.3453 36.1298 16.1446 32.368 16.1446 24.9492C16.1446 21.8797 17.2287 19.5151 19.4591 17.7194C20.1288 17.1786 21.1101 17.2849 21.649 17.9601C22.1879 18.6337 22.0805 19.6183 21.4091 20.1574C19.9232 21.3546 19.2597 22.833 19.2597 24.9492C19.2597 28.9329 20.3734 33.0041 28.6331 33.0041C36.8928 33.0041 38.0064 28.9313 38.0064 24.9492C38.0064 22.8377 37.3429 21.3593 35.8539 20.1543C35.1857 19.6136 35.0798 18.629 35.6202 17.9569Z" fill="#2C46B1"/>
<path d="M70.4182 15.0446C71.8701 15.0446 73.1664 15.418 74.3071 16.1646C75.4686 16.8906 76.3812 17.8965 77.0449 19.1824C77.7294 20.4684 78.0716 21.9617 78.0716 23.6624C78.0716 25.3632 77.7294 26.8669 77.0449 28.1736C76.3812 29.4595 75.479 30.4758 74.3382 31.2225C73.2182 31.9484 71.9531 32.3114 70.5427 32.3114C69.713 32.3114 68.9353 32.1765 68.2093 31.9069C67.4834 31.6373 66.8404 31.2951 66.2804 30.8802C65.7412 30.4654 65.316 30.0506 65.0049 29.6358C64.7145 29.2002 64.5693 28.8373 64.5693 28.5469L65.5338 28.1425V30.4136C65.5338 30.9528 65.3575 31.4091 65.0049 31.7825C64.6523 32.1351 64.2064 32.3114 63.6671 32.3114C63.1278 32.3114 62.6819 32.1351 62.3293 31.7825C61.9767 31.4299 61.8004 30.9736 61.8004 30.4136V10.8757C61.8004 10.3365 61.9767 9.89054 62.3293 9.53794C62.6819 9.16461 63.1278 8.97794 63.6671 8.97794C64.2064 8.97794 64.6523 9.16461 65.0049 9.53794C65.3575 9.89054 65.5338 10.3365 65.5338 10.8757V18.778L65.0049 18.498C65.0049 18.2283 65.1501 17.9069 65.4404 17.5335C65.7308 17.1395 66.1249 16.7557 66.6227 16.3824C67.1204 15.9883 67.6908 15.6669 68.3338 15.418C68.9975 15.1691 69.6923 15.0446 70.4182 15.0446ZM69.9516 18.4669C69.039 18.4669 68.2404 18.695 67.556 19.1513C66.8716 19.6076 66.3323 20.2298 65.9382 21.018C65.5649 21.7854 65.3782 22.6669 65.3782 23.6624C65.3782 24.6373 65.5649 25.5291 65.9382 26.338C66.3323 27.1262 66.8716 27.7484 67.556 28.2047C68.2404 28.661 69.039 28.8891 69.9516 28.8891C70.8642 28.8891 71.6523 28.661 72.316 28.2047C73.0005 27.7484 73.5294 27.1262 73.9027 26.338C74.2968 25.5291 74.4938 24.6373 74.4938 23.6624C74.4938 22.6669 74.2968 21.7854 73.9027 21.018C73.5294 20.2298 73.0005 19.6076 72.316 19.1513C71.6523 18.695 70.8642 18.4669 69.9516 18.4669ZM83.2028 32.0002C82.6635 32.0002 82.2176 31.8239 81.865 31.4714C81.5124 31.098 81.3361 30.6417 81.3361 30.1025V17.2535C81.3361 16.7143 81.5124 16.2683 81.865 15.9157C82.2176 15.5424 82.6635 15.3557 83.2028 15.3557C83.742 15.3557 84.1879 15.5424 84.5405 15.9157C84.8931 16.2683 85.0694 16.7143 85.0694 17.2535V20.178L84.8517 18.0935C85.0798 17.5957 85.3702 17.1602 85.7228 16.7869C86.0961 16.3928 86.5109 16.0713 86.9672 15.8224C87.4235 15.5528 87.9109 15.3557 88.4294 15.2313C88.948 15.1069 89.4665 15.0446 89.985 15.0446C90.6072 15.0446 91.1257 15.2209 91.5406 15.5735C91.9761 15.9261 92.1939 16.3409 92.1939 16.818C92.1939 17.5024 92.0176 18.0002 91.665 18.3113C91.3124 18.6017 90.9287 18.7469 90.5139 18.7469C90.1198 18.7469 89.7569 18.6743 89.425 18.5291C89.1139 18.3839 88.7509 18.3113 88.3361 18.3113C87.9628 18.3113 87.5791 18.4046 87.185 18.5913C86.8117 18.7572 86.4591 19.0269 86.1272 19.4002C85.8161 19.7735 85.5568 20.2402 85.3494 20.8002C85.1628 21.3395 85.0694 21.9824 85.0694 22.7291V30.1025C85.0694 30.6417 84.8931 31.098 84.5405 31.4714C84.1879 31.8239 83.742 32.0002 83.2028 32.0002ZM101.967 32.3114C100.204 32.3114 98.6692 31.9484 97.3625 31.2225C96.0766 30.4758 95.081 29.4699 94.3758 28.2047C93.6914 26.9395 93.3491 25.5084 93.3491 23.9113C93.3491 22.0447 93.7225 20.458 94.4692 19.1513C95.2366 17.8239 96.2321 16.8076 97.4558 16.1024C98.6795 15.3972 99.9758 15.0446 101.345 15.0446C102.403 15.0446 103.398 15.2624 104.331 15.698C105.285 16.1335 106.125 16.735 106.851 17.5024C107.577 18.2491 108.148 19.1202 108.563 20.1158C108.998 21.1113 109.216 22.1691 109.216 23.2891C109.195 23.7869 108.998 24.1913 108.625 24.5024C108.251 24.8136 107.816 24.9691 107.318 24.9691H95.4336L94.5003 21.858H105.918L105.234 22.4802V21.6402C105.192 21.0387 104.974 20.4995 104.58 20.0224C104.207 19.5454 103.73 19.1721 103.149 18.9024C102.589 18.612 101.988 18.4669 101.345 18.4669C100.723 18.4669 100.142 18.5498 99.6025 18.7158C99.0632 18.8817 98.5966 19.1617 98.2025 19.5558C97.8084 19.9498 97.4973 20.4787 97.2692 21.1424C97.041 21.8061 96.9269 22.6461 96.9269 23.6624C96.9269 24.7824 97.1551 25.7365 97.6114 26.5247C98.0884 27.2921 98.6899 27.8832 99.4158 28.298C100.163 28.6921 100.951 28.8891 101.78 28.8891C102.548 28.8891 103.16 28.8269 103.616 28.7025C104.072 28.578 104.435 28.4328 104.705 28.2669C104.995 28.0802 105.254 27.9247 105.483 27.8002C105.856 27.6136 106.208 27.5202 106.54 27.5202C106.997 27.5202 107.37 27.6758 107.66 27.9869C107.971 28.298 108.127 28.661 108.127 29.0758C108.127 29.6358 107.837 30.1439 107.256 30.6002C106.717 31.0565 105.96 31.461 104.985 31.8136C104.01 32.1454 103.004 32.3114 101.967 32.3114ZM113.072 15.3557C113.467 15.3557 113.829 15.4594 114.161 15.6669C114.493 15.8535 114.742 16.1439 114.908 16.538L119.481 26.9913L118.797 27.3025L123.464 16.5691C123.816 15.7394 124.366 15.3454 125.112 15.3869C125.631 15.3869 126.046 15.5528 126.357 15.8846C126.689 16.1957 126.855 16.5898 126.855 17.0669C126.855 17.212 126.824 17.3676 126.761 17.5335C126.72 17.6995 126.668 17.855 126.606 18.0002L120.788 30.818C120.456 31.5647 119.927 31.9588 119.201 32.0002C118.807 32.0625 118.424 31.9899 118.05 31.7825C117.698 31.5751 117.428 31.2536 117.241 30.818L111.455 18.0002C111.413 17.8965 111.361 17.7617 111.299 17.5957C111.258 17.4298 111.237 17.2328 111.237 17.0046C111.237 16.6313 111.403 16.2683 111.735 15.9157C112.067 15.5424 112.512 15.3557 113.072 15.3557ZM131.444 31.9691C130.843 31.9691 130.376 31.8136 130.044 31.5025C129.733 31.1706 129.578 30.7039 129.578 30.1025V29.5736C129.578 28.9721 129.733 28.5158 130.044 28.2047C130.376 27.8728 130.843 27.7069 131.444 27.7069H131.849C132.45 27.7069 132.907 27.8728 133.218 28.2047C133.55 28.5158 133.715 28.9721 133.715 29.5736V30.1025C133.715 30.7039 133.55 31.1706 133.218 31.5025C132.907 31.8136 132.45 31.9691 131.849 31.9691H131.444ZM141.587 30.1025C141.587 30.6417 141.401 31.098 141.027 31.4714C140.675 31.8239 140.229 32.0002 139.69 32.0002C139.171 32.0002 138.735 31.8239 138.383 31.4714C138.03 31.098 137.854 30.6417 137.854 30.1025V10.8757C137.854 10.3365 138.03 9.89054 138.383 9.53794C138.756 9.16461 139.213 8.97794 139.752 8.97794C140.291 8.97794 140.727 9.16461 141.058 9.53794C141.411 9.89054 141.587 10.3365 141.587 10.8757V30.1025ZM157.824 15.3557C158.363 15.3557 158.809 15.5424 159.162 15.9157C159.514 16.2683 159.69 16.7143 159.69 17.2535V30.4758C159.69 32.3839 159.327 33.898 158.602 35.018C157.896 36.1588 156.942 36.978 155.739 37.4758C154.536 37.9736 153.188 38.2225 151.695 38.2225C151.031 38.2225 150.326 38.1706 149.579 38.0669C148.833 37.9632 148.221 37.8077 147.744 37.6003C147.121 37.3306 146.686 36.9884 146.437 36.5736C146.209 36.1795 146.167 35.7543 146.313 35.298C146.499 34.6965 146.8 34.2817 147.215 34.0536C147.63 33.8462 148.065 33.8254 148.521 33.9914C148.853 34.0951 149.289 34.2506 149.828 34.458C150.367 34.6862 150.99 34.8003 151.695 34.8003C152.649 34.8003 153.437 34.6654 154.059 34.3958C154.702 34.1469 155.179 33.7114 155.49 33.0891C155.822 32.4877 155.988 31.658 155.988 30.6002V28.5158L156.642 29.2625C156.289 29.9469 155.843 30.5173 155.304 30.9736C154.785 31.4091 154.163 31.741 153.437 31.9691C152.711 32.1973 151.881 32.3114 150.948 32.3114C149.849 32.3114 148.884 32.0625 148.055 31.5647C147.246 31.0462 146.613 30.341 146.157 29.4491C145.701 28.5365 145.473 27.4995 145.473 26.338V17.2535C145.473 16.7143 145.649 16.2683 146.001 15.9157C146.354 15.5424 146.8 15.3557 147.339 15.3557C147.879 15.3557 148.324 15.5424 148.677 15.9157C149.03 16.2683 149.206 16.7143 149.206 17.2535V25.218C149.206 26.5662 149.496 27.5202 150.077 28.0802C150.679 28.6195 151.508 28.8891 152.566 28.8891C153.292 28.8891 153.904 28.7543 154.402 28.4847C154.899 28.1943 155.283 27.7795 155.553 27.2402C155.822 26.6802 155.957 26.0061 155.957 25.218V17.2535C155.957 16.7143 156.133 16.2683 156.486 15.9157C156.839 15.5424 157.284 15.3557 157.824 15.3557Z" fill="#2C46B1"/>
</svg>
